<?xml version="1.0" encoding="UTF-8" standalone="no"?>
<svg
   xmlns:dc="http://purl.org/dc/elements/1.1/"
   xmlns:cc="http://creativecommons.org/ns#"
   xmlns:rdf="http://www.w3.org/1999/02/22-rdf-syntax-ns#"
   xmlns:svg="http://www.w3.org/2000/svg"
   xmlns="http://www.w3.org/2000/svg"
   xmlns:sodipodi="http://sodipodi.sourceforge.net/DTD/sodipodi-0.dtd"
   xmlns:inkscape="http://www.inkscape.org/namespaces/inkscape"
   height="68px"
   id="Layer_1"
   version="1.2"
   viewBox="0 0 410.412 68"
   width="410.412px"
   xml:space="preserve"
   inkscape:version="0.91 r13725"
   sodipodi:docname="Icon.svg"><metadata
     id="metadata35"><rdf:RDF><cc:Work
         rdf:about=""><dc:format>image/svg+xml</dc:format><dc:type
           rdf:resource="http://purl.org/dc/dcmitype/StillImage" /></cc:Work></rdf:RDF></metadata><defs
     id="defs33" /><sodipodi:namedview
     pagecolor="#ffffff"
     bordercolor="#666666"
     borderopacity="1"
     objecttolerance="10"
     gridtolerance="10"
     guidetolerance="10"
     inkscape:pageopacity="0"
     inkscape:pageshadow="2"
     inkscape:window-width="640"
     inkscape:window-height="480"
     id="namedview31"
     showgrid="false"
     inkscape:zoom="0.87229421"
     inkscape:cx="205.20599"
     inkscape:cy="-7.8652593"
     inkscape:window-x="0"
     inkscape:window-y="0"
     inkscape:window-maximized="0"
     inkscape:current-layer="Layer_1" /><g
     id="g25"
     transform="translate(1.1464044,1.1464034)"
     style="fill:#000000"><path
       d="m 30.107,29.246 c 1.73,0.605 2.97,2.251 2.97,4.188 0,2.455 -1.985,4.438 -4.438,4.438 -1.937,0 -3.583,-1.238 -4.188,-2.971 -0.543,1.277 -0.842,2.682 -0.842,4.154 0,5.886 4.77,10.652 10.651,10.652 5.883,0 10.652,-4.767 10.652,-10.652 0,-5.881 -4.769,-10.652 -10.652,-10.652 -1.472,0.001 -2.877,0.302 -4.153,0.843 z"
       id="path27"
       inkscape:connector-curvature="0"
       style="fill:#000000" /><path
       d="m 25.394,13.319 0.005,-0.005 c 3.751,-2.732 8.372,-4.346 13.371,-4.346 2.793,0 5.449,0.435 7.917,1.361 0.16,0.057 0.372,0.095 0.468,0.095 0.588,0 1.022,-0.405 1.025,-0.978 C 48.181,9.055 47.988,8.731 47.739,8.5 41.202,2.484 34.26,0 34.26,0 18.768,6.194 7.375,21.179 7.048,38.301 c -0.14,4.871 1.023,9.838 3.639,14.366 1.552,2.689 3.494,5.012 5.71,6.939 C 12.155,57.721 8.45,54.526 5.95,50.198 4.553,47.779 3.6,45.26 3.169,42.662 3.14,42.494 3.066,42.293 3.018,42.209 2.724,41.698 2.157,41.525 1.659,41.812 1.319,42.004 1.136,42.334 1.063,42.666 -0.883,51.335 0.438,58.589 0.438,58.589 13.74,69.059 32.771,71.35 47.873,62.631 54.976,58.527 59.533,51.711 60.984,44.243 l 0.004,0.01 c 0.489,4.618 -0.425,9.423 -2.924,13.753 -1.396,2.418 -3.099,4.504 -5.135,6.178 -0.131,0.107 -0.269,0.273 -0.317,0.355 -0.294,0.508 -0.161,1.09 0.334,1.377 0.338,0.197 0.714,0.189 1.038,0.09 8.481,-2.65 14.103,-7.422 14.103,-7.422 C 70.462,42.12 63.23,24.811 48.652,15.945 41.806,11.691 33.251,10.602 25.394,13.319 Z m 31.014,20.685 c 0.22,1.091 0.341,2.214 0.341,3.355 0,10.745 -10.068,19.45 -22.488,19.45 -12.42,0 -22.487,-8.705 -22.487,-19.45 0,-1.142 0.121,-2.265 0.34,-3.355 4.667,-4.785 12.838,-7.966 22.147,-7.966 9.308,0 17.479,3.181 22.147,7.966 z"
       id="path29"
       inkscape:connector-curvature="0"
       style="fill:#000000" /></g></svg>